<svg height="345.90701" version="1.1" viewBox="0 0 459.99747 345.90701" width="459.99747" xml:space="preserve" id="svg2"
  xmlns="http://www.w3.org/2000/svg" xmlns:svg="http://www.w3.org/2000/svg">
  <defs id="defs2" />
  <g id="g2" transform="translate(-26.001524,-83.044998)">
    <path
      d="m 198.518,195.78 c -38.096,0.373 -72.593,29.687 -74.061,30.932 -4.45,3.835 -6.119,10.003 -4.225,15.563 0.922,2.769 21.479,60.739 78.287,71.951 v -29.837 c -25.759,-7.723 -40.451,-29.312 -46.949,-42.024 10.347,-7.007 28.804,-17.44 46.949,-17.732 v -28.851 c 0.227,-0.002 0.452,-0.057 0.713,-0.057 38.351,0 73.311,29.742 74.777,31.018 6.006,5.183 6.667,14.236 1.522,20.288 -5.146,6.059 -14.201,6.718 -20.238,1.589 -0.293,-0.229 -28.465,-24.04 -56.062,-24.04 -0.224,-0.025 -0.487,0.055 -0.713,0.055 v 59.729 c 5.918,1.792 12.24,3.058 19.402,3.058 41.054,0 89.576,-33.178 118.699,-58.715 -32.487,-26.812 -87.68,-59.185 -128.043,-59.185 -3.282,0 -6.671,0.408 -10.061,0.808 v 25.45 z"
      style="fill:#f1f1f1;fill-opacity:1" id="path1" />
    <path
      d="M 471.623,83.045 H 212.889 c -7.932,0 -14.369,6.457 -14.369,14.413 v 43.957 c 3.355,-0.316 6.723,-0.723 10.059,-0.723 57.156,0 128.101,47.447 159.374,77.372 2.851,2.683 4.433,6.429 4.461,10.318 0.031,3.891 -1.553,7.674 -4.312,10.406 -8.078,7.924 -80.897,77.481 -150.209,77.481 -6.93,0 -13.315,-0.837 -19.405,-2.042 v 26.654 c -33.987,-7.601 -88.3,-50.458 -135.808,-107.684 10.351,-5.565 20.929,-11.588 31.537,-17.677 35.735,-20.434 72.53,-41.306 104.303,-45.196 v -28.911 c -38.558,3.573 -79.151,26.551 -118.535,49.092 -15.61,8.905 -31.018,17.726 -45.91,25.016 -3.881,1.907 -6.727,5.482 -7.703,9.719 -0.977,4.232 0,8.682 2.675,12.106 48.841,62.582 118.269,124.93 169.474,132.454 v -28.904 c 3.522,0.807 7.022,1.58 10.059,1.58 40.075,0 158.284,-32.774 195.489,-69.268 5.634,-5.57 14.804,-5.446 20.32,0.231 5.55,5.678 5.438,14.811 -0.224,20.38 -44.795,43.983 -169.993,77.481 -215.586,77.481 -3.19,0 -6.702,-0.98 -10.059,-1.501 v 44.736 c 0,7.957 6.438,14.417 14.369,14.417 h 258.734 c 7.938,0 14.376,-6.46 14.376,-14.417 V 97.458 c 0,-7.955 -6.437,-14.413 -14.376,-14.413 z"
      style="fill:#f1f1f1;fill-opacity:1" id="path2" />
  </g>
</svg>